<?xml version="1.0" encoding="utf-8"?>
<!-- Generator: Adobe Illustrator 19.1.0, SVG Export Plug-In . SVG Version: 6.00 Build 0)  -->
<svg version="1.1" id="Layer_1" xmlns="http://www.w3.org/2000/svg" xmlns:xlink="http://www.w3.org/1999/xlink" x="0px" y="0px"
	 viewBox="0 0 560 560" style="enable-background:new 0 0 560 560;" xml:space="preserve">
<style type="text/css">
	.st0{fill:#FFFFFF;}
	.st1{fill:#ADD251;}
	.st2{fill:#ADD252;}
	.st3{display:none;fill:url(#Layer_2_1_);}
</style>
<desc>Created with Fabric.js 2.0.1</desc>
<g transform="translate(60.32 59.53) scale(0.33 0.33)">
	<path class="st0" d="M1374.8,1516.6H-43.4c-76.7,0-139.4-62.7-139.4-139.4V-41c0-76.7,62.7-139.4,139.4-139.4h1418.2
		c76.7,0,139.4,62.7,139.4,139.4v1418.2C1514.2,1453.8,1451.5,1516.6,1374.8,1516.6z"/>
	<path class="st1" d="M109.2,1086.2l-258.7-318c-15.1-18.9-15.1-47.3,0-66.1l258.4-323.7l71,56.7L-59.4,735l239.1,293.9
		L109.2,1086.2z"/>
	<path d="M485.4,1248H352c-32.8,0-59.4-26.7-59.4-59.4V214.6c0-32.8,26.7-59.4,59.4-59.4l128.4,0.5l-0.3,90.9l-96.6-0.4v910.9h101.9
		V1248z"/>
	<path class="st1" d="M1222.2,1086.2l-70.5-57.4L1390.8,735l-239.3-299.8l71-56.7l258.4,323.7c15,18.8,15.1,47.2,0,66.1l-0.2,0.3
		L1222.2,1086.2z"/>
	<path d="M979.4,1248H846v-90.9h101.9V246.2l-96.6,0.4l-0.3-90.9l128.3-0.5c32.9,0,59.6,26.7,59.6,59.4v973.9
		C1038.8,1221.3,1012.2,1248,979.4,1248z"/>
	<rect id="Layer_1_5_" x="484.9" y="336.4" class="st2" width="361" height="639.5"/>
	<circle id="Layer_1_6_" cx="665.5" cy="1138.7" r="64.4"/>
	
		<radialGradient id="Layer_2_1_" cx="3915.8176" cy="1253.3579" r="259.7368" gradientTransform="matrix(0.2519 0.2132 1.2792 -1.5113 -1925.8011 1669.8013)" gradientUnits="userSpaceOnUse">
		<stop  offset="0" style="stop-color:#8CC863"/>
		<stop  offset="0.8452" style="stop-color:#8DC743;stop-opacity:0.1548"/>
		<stop  offset="1" style="stop-color:#8DC63F;stop-opacity:0"/>
	</radialGradient>
	<path id="Layer_2" class="st3" d="M846,336.4c-54.1,49-184.2,118-242.6,211.3c-105,168.4-108.2,331.2-118.5,428.2V336.4H846z"/>
</g>
</svg>
